# xmcd
#
# Track frame offsets:
#	150
#	22885
#	45552
#	147878
#	182216
#	209978
#	224452
#	267287
#	318963
#	335559
#
# Disc length: 4657 seconds
#
# Revision: 1
# Processed by: cddbd v1.5.2PL0 Copyright (c) Steve Scherf et al.
# Submitted via: EZCDAudioConverter 2.1.7.1
#
DISCID=9c122f0a
DTITLE=Caravan - The World Is Yours 2/4
DYEAR=2010
DGENRE=
TTITLE0=Golf Girl
TTITLE1=In The Land Of Grey And Pink
TTITLE2=Nine Feet Underground
TTITLE3=Winter Wine
TTITLE4=I Don't Know Its Name [Alias ''The Word'']
TTITLE5=Love To Love You
TTITLE6=Feelin', Reelin', Squealin'
TTITLE7=The Love In Your Eye
TTITLE8=The World Is Yours
TTITLE9=Aristocracy
EXTD=
EXTT0=
EXTT1=
EXTT2=
EXTT3=
EXTT4=
EXTT5=
EXTT6=
EXTT7=
EXTT8=
EXTT9=
PLAYORDER=
